#!OML:ASF H:\Male1\Project 1\Capture day 1\Session 1\Male1.ASF
:FULLY-SPECIFIED
:DEGREES
368
root 8.45086 15.4625 4.1855 176.202 6.55777 -179.94
lowerback 6.83909 1.46627 -0.943823
upperback 3.72291 2.16972 -1.39512
thorax 0.026562 1.20465 -1.04865
lowerneck -5.13199 8.87056 12.8914
upperneck 2.93326 11.3946 -9.07272
head 2.95889 5.59665 -4.22165
rclavicle 1.38155e-014 1.70955e-014
rhumerus -2.08291 44.8849 -93.0409
rradius 113.113
rwrist -24.8228
rhand -42.564 17.7955
rfingers 7.12502
rthumb -15.4385 -11.608
lclavicle 1.38155e-014 1.70955e-014
lhumerus -1.65044 -37.6131 90.7257
lradius 121.011
lwrist 15.7342
lhand -41.5224 5.15037
lfingers 7.12502
lthumb -14.435 34.6283
rfemur -1.42706 17.2416 21.2259
rtibia 21.7236
rfoot -29.9798 -32.1979
rtoes -12.222
lfemur 1.21232 -22.539 -18.3516
ltibia 17.9395
lfoot -20.6902 32.0266
ltoes -8.17993
369
root 8.45019 15.4596 4.18378 176.191 6.54659 -179.94
lowerback 6.82195 1.45078 -0.975629
upperback 3.75425 2.15039 -1.37359
thorax 0.0662071 1.19521 -1.00621
lowerneck -5.16979 8.87348 12.8069
upperneck 2.83493 11.3956 -9.07754
head 2.93116 5.59515 -4.21072
rclavicle -3.37934e-015 -2.78299e-015
rhumerus -2.29235 44.8707 -93.0003
rradius 113.128
rwrist -24.4968
rhand -42.592 17.9156
rfingers 7.12502
rthumb -15.4654 -11.4857
lclavicle -3.37934e-015 -2.78299e-015
lhumerus -1.87823 -37.6977 90.7081
lradius 120.976
lwrist 15.4951
lhand -41.9706 5.00973
lfingers 7.12502
lthumb -14.8668 34.4563
rfemur -1.38554 17.2468 21.2379
rtibia 21.664
rfoot -29.8737 -32.3188
rtoes -12.4516
lfemur 1.14259 -22.4358 -18.3357
ltibia 18.0812
lfoot -20.6794 31.9113
ltoes -8.33441
370
root 8.44958 15.4557 4.18201 176.165 6.54485 -179.936
lowerback 6.82147 1.43611 -1.01445
upperback 3.7889 2.13197 -1.34417
thorax 0.0995634 1.18621 -0.952315
lowerneck -5.21358 8.8795 12.7315
upperneck 2.7358 11.4004 -9.09706
head 2.90601 5.59528 -4.20504
rclavicle -3.926e-015 1.35174e-014
rhumerus -2.50891 44.8112 -92.9316
rradius 113.127
rwrist -24.1025
rhand -42.5825 18.139
rfingers 7.12502
rthumb -15.4563 -11.2631
lclavicle -3.926e-015 1.35174e-014
lhumerus -2.12328 -37.7561 90.6577
lradius 120.924
lwrist 15.1723
lhand -42.3756 4.88212
lfingers 7.12502
lthumb -15.2569 34.2995
rfemur -1.33362 17.1925 21.2479
rtibia 21.5918
rfoot -29.6939 -32.4081
rtoes -12.7585
lfemur 1.06913 -22.2919 -18.3145
ltibia 18.2583
lfoot -20.6645 31.7684
ltoes -8.54303
371
root 8.44886 15.4515 4.18014 176.119 6.55563 -179.933
lowerback 6.84358 1.42472 -1.05654
upperback 3.82896 2.1184 -1.31369
thorax 0.125972 1.17999 -0.896478
lowerneck -5.27288 8.89271 12.685
upperneck 2.65778 11.4128 -9.12736
head 2.89279 5.59891 -4.20523
rclavicle -1.47598e-014 1.43125e-014
rhumerus -2.73326 44.6875 -92.837
rradius 113.106
rwrist -23.6456
rhand -42.5371 18.4588
rfingers 7.12502
rthumb -15.4125 -10.9466
lclavicle -1.47598e-014 1.43125e-014
lhumerus -2.3731 -37.7718 90.561
lradius 120.841
lwrist 14.7389
lhand -42.6725 4.78182
lfingers 7.12502
lthumb -15.543 34.1772
rfemur -1.26749 17.0821 21.2513
rtibia 21.525
rfoot -29.468 -32.4421
rtoes -13.089
lfemur 1.01526 -22.1129 -18.2984
ltibia 18.4448
lfoot -20.63 31.6116
ltoes -8.79931
372
root 8.44801 15.4475 4.17812 176.048 6.58013 -179.932
lowerback 6.89037 1.41904 -1.09381
upperback 3.87459 2.11359 -1.28978
thorax 0.145011 1.17884 -0.851357
lowerneck -5.35115 8.90764 12.6587
upperneck 2.59904 11.4242 -9.15145
head 2.88905 5.60209 -4.2054
rclavicle -1.10822e-014 -4.77083e-015
rhumerus -2.95737 44.4598 -92.7113
rradius 113.067
rwrist -23.1177
rhand -42.3901 18.6899
rfingers 7.12502
rthumb -15.2709 -10.7264
lclavicle -1.10822e-014 -4.77083e-015
lhumerus -2.61715 -37.7245 90.4057
lradius 120.722
lwrist 14.181
lhand -42.8028 4.71032
lfingers 7.12502
lthumb -15.6685 34.0959
rfemur -1.18621 16.9409 21.2493
rtibia 21.4773
rfoot -29.2508 -32.4118
rtoes -13.3522
lfemur 0.994407 -21.91 -18.2923
ltibia 18.6202
lfoot -20.578 31.4525
ltoes -9.06597
373
root 8.44702 15.4438 4.17596 175.96 6.615 -179.935
lowerback 6.9584 1.41872 -1.11694
upperback 3.92197 2.11724 -1.27735
thorax 0.155127 1.18267 -0.827157
lowerneck -5.44159 8.91667 12.6318
upperneck 2.54901 11.4251 -9.1496
head 2.88708 5.60041 -4.1978
rclavicle 3.11595e-014 -2.5842e-014
rhumerus -3.17844 44.1004 -92.5454
rradius 113.017
rwrist -22.5432
rhand -42.0998 18.7621
rfingers 7.12502
rthumb -14.9913 -10.6752
lclavicle 3.11595e-014 -2.5842e-014
lhumerus -2.85427 -37.594 90.1775
lradius 120.575
lwrist 13.5229
lhand -42.7292 4.64993
lfingers 7.12502
lthumb -15.5976 34.041
rfemur -1.09773 16.7894 21.2434
rtibia 21.4549
rfoot -29.0545 -32.343
rtoes -13.5614
lfemur 1.00337 -21.6978 -18.2955
ltibia 18.7749
lfoot -20.5357 31.2877
ltoes -9.23632
374
root 8.44592 15.4406 4.17367 175.865 6.65403 -179.933
lowerback 7.03914 1.42087 -1.11516
upperback 3.96892 2.12577 -1.27365
thorax 0.158995 1.18962 -0.826624
lowerneck -5.5376 8.91517 12.5938
upperneck 2.49917 11.4106 -9.12275
head 2.88219 5.59149 -4.18199
rclavicle -2.87741e-014 6.36111e-015
rhumerus -3.38772 43.587 -92.3189
rradius 112.972
rwrist -21.9364
rhand -41.6418 18.6253
rfingers 7.12502
rthumb -14.5501 -10.8444
lclavicle -2.87741e-014 6.36111e-015
lhumerus -3.07926 -37.3541 89.8466
lradius 120.417
lwrist 12.8215
lhand -42.4427 4.534
lfingers 7.12502
lthumb -15.3217 33.9464
rfemur -1.01098 16.6476 21.2463
rtibia 21.4568
rfoot -28.8681 -32.2787
rtoes -13.7778
lfemur 1.03065 -21.4876 -18.2937
ltibia 18.9085
lfoot -20.5112 31.1134
ltoes -9.27711
375
root 8.44478 15.4376 4.17124 175.769 6.69455 -179.92
lowerback 7.12527 1.42312 -1.09042
upperback 4.01721 2.13604 -1.27379
thorax 0.162225 1.19798 -0.843162
lowerneck -5.64774 8.90675 12.5353
upperneck 2.46036 11.3858 -9.06942
head 2.87898 5.57762 -4.15512
rclavicle -1.09332e-014 1.47101e-014
rhumerus -3.57274 42.9 -92.0071
rradius 112.952
rwrist -21.2932
rhand -41.012 18.2527
rfingers 7.12502
rthumb -13.9432 -11.2598
lclavicle -1.09332e-014 1.47101e-014
lhumerus -3.28662 -36.9676 89.3826
lradius 120.268
lwrist 12.1309
lhand -41.9999 4.28558
lfingers 7.12502
lthumb -14.8951 33.7301
rfemur -0.930678 16.5183 21.2645
rtibia 21.4783
rfoot -28.6265 -32.2729
rtoes -14.2085
lfemur 1.07057 -21.2849 -18.2811
ltibia 19.0242
lfoot -20.504 30.9347
ltoes -9.21545
376
root 8.44351 15.4348 4.16855 175.676 6.73899 -179.9
lowerback 7.21096 1.42529 -1.05023
upperback 4.06864 2.14755 -1.27394
thorax 0.169509 1.20735 -0.868366
lowerneck -5.76792 8.89074 12.4572
upperneck 2.42754 11.3514 -9.01061
head 2.87676 5.55883 -4.12388
rclavicle -1.50082e-014 1.82882e-014
rhumerus -3.72497 42.0268 -91.5798
rradius 112.978
rwrist -20.5907
rhand -40.2454 17.7283
rfingers 7.12502
rthumb -13.2043 -11.8335
lclavicle -1.50082e-014 1.82882e-014
lhumerus -3.47002 -36.3976 88.7553
lradius 120.148
lwrist 11.48
lhand -41.4394 3.90191
lfingers 7.12502
lthumb -14.3551 33.3856
rfemur -0.860446 16.386 21.2906
rtibia 21.5124
rfoot -28.2262 -32.3681
rtoes -15.1524
lfemur 1.117 -21.0735 -18.2586
ltibia 19.1253
lfoot -20.4829 30.7577
ltoes -9.16486
